<svg xmlns="http://www.w3.org/2000/svg" viewBox="0 0 240 240" width="240" height="240">
  <defs>
    <symbol id="plum" viewBox="-30 -30 60 60">
      
      <g fill="none" stroke="currentColor" stroke-width="1.2" stroke-linejoin="round" stroke-linecap="round">
        <g>
          <path d="M0 -22 C 8 -18 12 -10 8 -2 C 4 4 -4 4 -8 -2 C -12 -10 -8 -18 0 -22 Z"></path>
        </g>
        <g transform="rotate(72)">
          <path d="M0 -22 C 8 -18 12 -10 8 -2 C 4 4 -4 4 -8 -2 C -12 -10 -8 -18 0 -22 Z"></path>
        </g>
        <g transform="rotate(144)">
          <path d="M0 -22 C 8 -18 12 -10 8 -2 C 4 4 -4 4 -8 -2 C -12 -10 -8 -18 0 -22 Z"></path>
        </g>
        <g transform="rotate(216)">
          <path d="M0 -22 C 8 -18 12 -10 8 -2 C 4 4 -4 4 -8 -2 C -12 -10 -8 -18 0 -22 Z"></path>
        </g>
        <g transform="rotate(288)">
          <path d="M0 -22 C 8 -18 12 -10 8 -2 C 4 4 -4 4 -8 -2 C -12 -10 -8 -18 0 -22 Z"></path>
        </g>
        <circle cx="0" cy="0" r="3" fill="currentColor" stroke="none"></circle>
      </g>
    </symbol>
  </defs>
  <g color="#C8553D" opacity="0.5">
    <use href="#plum" x="40" y="40" width="40" height="40"></use>
    <use href="#plum" x="160" y="40" width="40" height="40"></use>
    <use href="#plum" x="100" y="100" width="40" height="40"></use>
    <use href="#plum" x="40" y="160" width="40" height="40"></use>
    <use href="#plum" x="160" y="160" width="40" height="40"></use>
  </g>
</svg>